<svg height="512pt" viewBox="0 -26 512 512" width="512pt" xmlns="http://www.w3.org/2000/svg"><g fill-rule="evenodd"><path d="m116 10h-90c-8.800781 0-16 7.199219-16 16v44h492v-44c0-8.800781-7.199219-16-16-16zm0 0" fill="#ae5e3c"/><path d="m441.035156 70v319.996094h60.964844v-319.996094zm0 0" fill="#db8c60"/><path d="m395.238281 389.996094h-385.238281v44c0 8.800781 7.199219 16 16 16h460c8.800781 0 16-7.199219 16-16v-44zm0 0" fill="#ae5e3c"/><path d="m70 350.503906v-280.503906h-60v319.996094h60zm0 0" fill="#db8c60"/><path d="m209.722656 230-139.722656-120.503906v241.007812zm0 0" fill="#db8c60"/><path d="m70 109.496094 139.722656 120.503906 45.792969 39.492188 139.722656 120.503906h45.796875v-39.492188l-139.722656-120.503906-45.796875-39.496094-139.722656-120.503906h-45.792969zm0 0" fill="#ae5e3c"/><path d="m115.792969 70 139.722656 120.503906 139.722656-120.503906zm0 0" fill="#db8c60"/><path d="m395.238281 70-139.722656 120.503906 45.796875 39.496094 139.722656-120.503906v-39.496094zm0 0" fill="#ae5e3c"/><path d="m441.035156 109.496094-139.722656 120.503906 139.722656 120.503906zm0 0" fill="#db8c60"/><path d="m255.515625 269.492188-45.792969-39.492188-139.722656 120.503906v39.492188h45.792969zm0 0" fill="#ae5e3c"/><path d="m255.515625 269.492188-139.722656 120.503906h279.445312zm0 0" fill="#db8c60"/></g><path d="m75.765625 20h.269531c5.523438 0 10-4.476562 10-10s-4.476562-10-10-10h-.269531c-5.523437 0-10 4.476562-10 10s4.476563 10 10 10zm0 0"/><path d="m486 0h-370c-5.523438 0-10 4.476562-10 10s4.476562 10 10 10h370c3.253906 0 6 2.746094 6 6v34h-472v-34c0-3.253906 2.746094-6 6-6h21.035156c5.519532 0 10-4.476562 10-10s-4.480468-10-10-10h-21.035156c-14.335938 0-26 11.664062-26 26v407.996094c0 14.339844 11.664062 26 26 26h460c14.335938 0 26-11.660156 26-26v-407.996094c0-14.335938-11.664062-26-26-26zm6 379.996094h-40.964844v-299.996094h40.964844zm-93.042969 0-318.957031-275.082032v-24.914062h32.078125l318.957031 275.082031v24.914063zm-318.957031 0v-24.914063l129.722656-111.878906 30.480469 26.289063-128.125 110.503906zm0-248.671875 114.410156 98.675781-114.410156 98.671875zm175.515625 151.375 112.816406 97.296875h-225.632812zm-112.816406-202.699219h225.632812l-112.816406 97.296875zm288.335937 248.671875-114.414062-98.671875 114.414062-98.675781zm0-223.757813-129.722656 111.878907-30.484375-26.289063 128.128906-110.503906h32.078125zm-371.035156-24.914062v299.996094h-40v-299.996094zm426 359.996094h-460c-3.253906 0-6-2.746094-6-6v-34h472v34c0 3.253906-2.746094 6-6 6zm0 0"/><path d="m472 409.996094h-41.035156c-5.523438 0-10 4.480468-10 10 0 5.523437 4.476562 10 10 10h41.035156c5.519531 0 10-4.476563 10-10 0-5.519532-4.480469-10-10-10zm0 0"/><path d="m402.234375 410h-.238281c-5.519532 0-10 4.476562-10 10 0 5.519531 4.480468 10 10 10h.238281c5.519531 0 10-4.480469 10-10 0-5.523438-4.476563-10-10-10zm0 0"/></svg>