<svg viewBox="-40 0 512 512.0007" xmlns="http://www.w3.org/2000/svg"><path d="m150.757812 56.847656c-56.488281 4.945313-89.835937 46.945313-85.648437 94.792969.292969 3.34375.789063 6.621094 1.476563 9.828125 1.3125 6.125-.628907 12.449219-4.859376 17.070312-12.4375 13.582032-19.242187 30.738282-17.664062 48.773438 1.890625 21.566406-5.539062 42.601562-22.527344 50.972656-7.054687 3.476563-7.871094 13.285156-1.617187 18.054688 40.289062 30.722656 180.265625 47.914062 214.808593-43.984375 0 0 23.855469-36.824219 16.839844-117.03125-4.1875-47.84375-36.945312-84.0625-100.808594-78.476563zm0 0" fill="#7f9ae6"/><path d="m142.574219 270.445312c-64.894531 13.734376-64.113281 102.363282-115.394531 131.597657-5.621094 3.203125-5.714844 11.246093-.269532 14.738281 32.546875 20.875 110.296875 36.152344 152.253906 20.160156 48.160157-18.359375 58.386719-143.433594 59.554688-157.933594zm0 0" fill="#e88c98"/><path d="m212.46875 353.445312c.300781-6.902343-37.648438-33.457031-37.648438-34.363281 0-.902343-60.367187-1.804687-60.367187-1.804687-25.074219 69.347656-64.792969 96.421875-78.824219 104.414062 36.132813 18.214844 104.953125 29.957032 143.535156 15.25 16.222657-6.183594 28.132813-24.476562 36.851563-46.566406-1.558594-14.160156-3.746094-32.332031-3.546875-36.929688zm0 0" fill="#db818d"/><path d="m144.832031 358.398438c-27.140625-1.871094-49.738281 19.585937-49.738281 46.324218 0 9.273438-7.265625 14.402344-15.710938 16.828125-7.382812 2.125-8.449218 12.074219-1.78125 15.894531 22.515626 12.898438 45.75 13.71875 63.933594 13.71875 26.738282 0 48.199219-22.59375 46.328125-49.734374-1.578125-22.898438-20.132812-41.453126-43.03125-43.03125zm0 0" fill="#7f9ae6"/><path d="m162.976562 504.5c-4.785156 0-9.585937-1.71875-13.394531-5.203125-8.089843-7.402344-8.648437-19.957031-1.25-28.046875 10.484375-11.464844 18.917969-33.304688 25.058594-64.914062 2.089844-10.761719 12.507813-17.792969 23.273437-15.703126 10.761719 2.09375 17.792969 12.511719 15.703126 23.277344-7.664063 39.4375-19.027344 66.960938-34.738282 84.132813-3.914062 4.285156-9.273437 6.457031-14.652344 6.457031zm0 0" fill="#f9f1da"/><path d="m257.539062 486.5c-4.902343 0-9.808593-1.800781-13.648437-5.4375-7.960937-7.539062-8.304687-20.101562-.765625-28.066406 5.78125-6.101563 8.972656-13.5 8.75-20.289063-.113281-3.492187-1.167969-6.492187-2.828125-8.027343-8.039063-7.457032-8.511719-20.015626-1.054687-28.054688 7.453124-8.039062 20.015624-8.511719 28.054687-1.058594 9.539063 8.847656 15.046875 21.578125 15.511719 35.851563.5625 17.3125-6.582032 35.128906-19.601563 48.878906-3.902343 4.121094-9.15625 6.203125-14.417969 6.203125zm0 0" fill="#f9f1da"/><path d="m271.957031 480.296875c4.054688-4.28125 7.535157-8.953125 10.394531-13.882813l-36.792968-16.269531c-.75.976563-1.558594 1.929688-2.433594 2.851563-7.539062 7.960937-7.195312 20.527344.765625 28.066406 3.839844 3.636719 8.746094 5.4375 13.648437 5.4375 5.261719 0 10.515626-2.082031 14.417969-6.203125zm0 0" fill="#495059"/><path d="m259.339844 115.65625c-9.523438 20.425781-.441406 30.671875 13.601562 37.21875 14.046875 6.550781 27.730469 6.921875 37.257813-13.5 9.523437-20.425781 10.652343-52.570312-3.394531-59.121094-14.042969-6.546875-37.941407 14.980469-47.464844 35.402344zm0 0" fill="#f0e4c0"/><path d="m297.046875 358.945312c-7.347656 0-14.410156-4.097656-17.851563-11.148437-4.8125-9.851563-.726562-21.738281 9.125-26.546875 14.738282-7.199219 51.773438-29.996094 73.113282-49.8125 8.035156-7.457031 20.59375-6.992188 28.054687 1.042969 7.460938 8.035156 6.996094 20.59375-1.039062 28.054687-25.695313 23.859375-66.542969 48.5-82.703125 56.390625-2.804688 1.367188-5.777344 2.019531-8.699219 2.019531zm0 0" fill="#f5ebcd"/><path d="m376.0625 311.207031c4.375-3.535156 8.550781-7.113281 12.386719-10.671875 8.035156-7.460937 8.5-20.019531 1.039062-28.054687-7.460937-8.035157-20.019531-8.5-28.054687-1.042969-3.605469 3.347656-7.667969 6.78125-11.988282 10.210938zm0 0" fill="#495059"/><path d="m317.863281 346.699219c0 48.957031-31.542969 88.640625-101.707031 88.640625s-101.707031-39.683594-101.707031-88.640625 45.539062-88.644531 101.707031-88.644531c56.171875 0 101.707031 39.6875 101.707031 88.644531zm0 0" fill="#f9f1da"/><path d="m216.15625 435.339844c20.585938 0 37.820312-3.433594 51.9375-9.5-136.871094-8.199219-108.503906-137.285156-59.042969-167.566406-52.855469 3.179687-94.601562 41.550781-94.601562 88.425781 0 48.957031 31.542969 88.640625 101.707031 88.640625zm0 0" fill="#f0e4c0"/><path d="m240.332031 396.683594-30.375-28.480469c-4.496093-4.214844-5.4375-11-2.261719-16.277344l8.910157-14.796875c2.367187-3.925781 6.613281-6.328125 11.199219-6.328125h42.9375c4.582031 0 8.832031 2.402344 11.195312 6.328125l8.910156 14.796875c3.179688 5.277344 2.238282 12.0625-2.257812 16.277344l-30.378906 28.480469c-5.027344 4.714844-12.851563 4.714844-17.878907 0zm0 0" fill="#8a82d1"/><path d="m272.839844 382.96875c-35.5-3.285156-46.984375-30.402344-36.144532-52.167969h-8.894531c-4.582031 0-8.832031 2.402344-11.195312 6.328125l-8.910157 14.796875c-3.179687 5.277344-2.238281 12.0625 2.257813 16.277344l30.378906 28.480469c5.027344 4.710937 12.851563 4.710937 17.878907 0zm0 0" fill="#7a73b8"/><path d="m249.273438 388.542969c-.367188 0-.6875-.128907-.953126-.378907l-30.378906-28.480468c-.476562-.445313-.574218-1.175782-.238281-1.734375l8.90625-14.796875c.25-.414063.707031-.671875 1.195313-.671875h42.9375c.484374 0 .941406.257812 1.191406.671875l8.910156 14.796875c.335938.558593.234375 1.289062-.242188 1.734375l-30.375 28.480468c-.269531.25-.589843.378907-.953124.378907zm0 0" fill="#f8e47c"/><path d="m233.09375 342.480469h-5.289062c-.488282 0-.945313.257812-1.195313.671875l-8.90625 14.796875c-.335937.558593-.238281 1.289062.238281 1.734375l30.378906 28.480468c.265626.25.585938.378907.953126.378907.363281 0 .683593-.128907.953124-.378907l8.617188-8.078124c-19.40625-6.542969-27.8125-22.132813-25.75-37.605469zm0 0" fill="#f5d56e"/><path d="m236.4375 277.460938c-27.953125 2.445312-62.914062 36.957031-96.53125-.152344-11.304688 10.21875-20.207031 22.46875-25.960938 35.953125 24.339844 18.476562 55.335938 28.332031 88.097657 25.46875 9.660156-.847657 20.1875-1.496094 31.335937-2.1875 12.429688-.765625 25.285156-1.5625 38.460938-2.714844h.011718c14.960938-1.308594 30.371094-3.0625 45.554688-5.796875 7.699219-1.386719 12.144531-9.550781 9.210938-16.804688-3.550782-8.789062-8.460938-16.953124-14.484376-24.316406-21.558593-11.957031-34.679687-13.039062-75.695312-9.449218zm0 0" fill="#e88c98"/><path d="m396.660156 149.460938c-41.765625-35.046876-120.953125-50.871094-208.449218-43.214844-57.28125 5.011718-99.652344 55.507812-94.640626 112.789062 5.011719 57.28125 55.507813 99.652344 112.789063 94.640625 63.289063-5.535156 158.839844-2.734375 200.125-51.933593 28.292969-33.71875 23.894531-83.992188-9.824219-112.28125zm0 0" fill="#f9f1da"/><path d="m133.089844 127.988281c-26.75 20.992188-42.703125 54.648438-39.519532 91.046875 5.011719 57.28125 55.507813 99.652344 112.789063 94.640625 42.667969-3.734375 99.996094-3.679687 145.476563-18.320312-227.417969 36.101562-242.679688-100.820313-218.746094-167.367188zm0 0" fill="#f5ebcd"/><path d="m212.777344 179.445312c-.839844-9.578124-14.898438-16.171874-31.40625-14.726562-16.503906 1.445312-29.207032 10.382812-28.367188 19.960938.835938 9.578124 14.898438 16.171874 31.40625 14.726562 16.503906-1.445312 29.207032-10.382812 28.367188-19.960938zm0 0" fill="#e88c98"/><path d="m314.984375 170.53125c.835937 9.578125 14.898437 16.171875 31.402344 14.726562 16.507812-1.445312 29.210937-10.382812 28.371093-19.960937-.839843-9.578125-14.898437-16.171875-31.40625-14.726563-16.503906 1.445313-29.207031 10.382813-28.367187 19.960938zm0 0" fill="#e88c98"/><path d="m266.910156 142.308594c-20.121094 6.886718-42.40625.914062-56.386718-15.109375-4.632813-5.308594-5.625-12.878907-2.523438-19.203125l44.566406-90.785156c3.65625-7.449219 12.074219-11.269532 20.089844-9.125 8.015625 2.148437 13.394531 9.667968 12.835938 17.949218l-6.796876 100.90625c-.472656 7.027344-5.117187 13.085938-11.785156 15.367188zm0 0" fill="#f8e47c"/><path d="m272.65625 8.085938c-8.015625-2.144532-16.429688 1.675781-20.089844 9.125l-18.949218 38.609374c12.976562.417969 29.871093-1.925781 50.65625-11.640624l1.222656-18.144532c.554687-8.28125-4.820313-15.800781-12.839844-17.949218zm0 0" fill="#e88c98"/><path d="m278.695312 126.941406 2.25-33.402344c-33.460937 18.863282-58.101562 19.054688-73.753906 16.429688-2.042968 5.875-.828125 12.464844 3.332032 17.230469 13.984374 16.023437 36.269531 21.996093 56.386718 15.109375 6.667969-2.28125 11.3125-8.339844 11.785156-15.367188zm0 0" fill="#72cda2"/><path d="m153.136719 124.949219c12.925781 18.460937 5.761719 30.128906-6.933594 39.015625-12.691406 8.886718-26.105469 11.632812-39.03125-6.828125-12.929687-18.460938-19.621094-49.921875-6.929687-58.8125 12.695312-8.886719 39.96875 8.164062 52.894531 26.625zm0 0" fill="#f0e4c0"/><path d="m137.941406 404.777344c-1.921875 0-3.878906-.28125-5.8125-.871094-16.945312-5.183594-29.246094-16.707031-34.640625-32.449219-6.433593-18.785156-2.066406-40.988281 11.984375-60.921875 6.316406-8.960937 18.699219-11.105468 27.664063-4.789062 8.960937 6.316406 11.105469 18.703125 4.789062 27.664062-7.691406 10.910156-8.59375 20.160156-6.875 25.179688.769531 2.246094 2.507813 5.457031 8.691407 7.34375 10.484374 3.207031 16.382812 14.308594 13.175781 24.792968-2.613281 8.550782-10.476563 14.050782-18.976563 14.050782zm0 0" fill="#f9f1da"/><path d="m187.386719 485.171875-35.125-18.851563c-1.273438 1.8125-2.585938 3.457032-3.929688 4.929688-7.398437 8.089844-6.839843 20.648438 1.25 28.046875 3.808594 3.484375 8.609375 5.203125 13.394531 5.203125 5.378907 0 10.738282-2.171875 14.652344-6.453125 3.460938-3.785156 6.710938-8.070313 9.757813-12.875zm0 0" fill="#495059"/><path d="m156.917969 390.726562c3.207031-10.484374-2.691407-21.582031-13.175781-24.789062-2.238282-.6875-3.890626-1.542969-5.128907-2.46875l-21.789062 33.199219c4.535156 3.058593 9.65625 5.507812 15.304687 7.238281 1.933594.589844 3.890625.871094 5.816406.871094 8.496094 0 16.359376-5.5 18.972657-14.050782zm0 0" fill="#495059"/><path d="m118.210938 465.234375c-3.402344-2.359375-8.074219-1.511719-10.4375 1.890625l-9.996094 14.417969c-2.359375 3.402343-1.511719 8.078125 1.890625 10.4375 1.304687.902343 2.792969 1.335937 4.269531 1.335937 2.375 0 4.710938-1.125 6.167969-3.226562l9.996093-14.417969c2.359376-3.402344 1.515626-8.078125-1.890624-10.4375zm-65.601563-1.125c-3.402344-2.359375-8.074219-1.511719-10.4375 1.890625l-16.558594 23.882812c-2.359375 3.40625-1.515625 8.078126 1.890625 10.4375 1.300782.90625 2.789063 1.339844 4.265625 1.339844 2.375 0 4.714844-1.128906 6.167969-3.230468l16.5625-23.882813c2.359375-3.402344 1.511719-8.078125-1.890625-10.4375zm-24.273437-119.882813c-3.40625-2.363281-8.078126-1.515624-10.4375 1.886719l-16.5625 23.886719c-2.359376 3.402344-1.511719 8.074219 1.890624 10.4375 1.304688.902344 2.792969 1.335938 4.269532 1.335938 2.375 0 4.710937-1.125 6.167968-3.226563l16.5625-23.886719c2.359376-3.402344 1.511719-8.074218-1.890624-10.433594zm305.085937-192.746093-.925781-10.554688c-.359375-4.125-4-7.179687-8.125-6.816406s-7.179688 4-6.816406 8.125l.925781 10.554687c.339843 3.90625 3.613281 6.847657 7.460937 6.847657.21875 0 .441406-.011719.664063-.027344 4.125-.363281 7.175781-4 6.816406-8.128906zm99.121094 55.167969c-.96875-21.722657-9.90625-42.152344-25.175781-57.523438-2.917969-2.9375-7.667969-2.953125-10.605469-.035156-2.9375 2.917968-2.957031 7.667968-.035157 10.609375 12.632813 12.71875 20.03125 29.628906 20.832032 47.621093.808594 18.097657-5.167969 35.710938-16.820313 49.601563-32.722656 38.996094-104.910156 43.457031-162.917969 47.042969-11.347656.699218-22.0625 1.363281-32.113281 2.242187-53.070312 4.644531-100.023437-34.753906-104.664062-87.824219-1.449219-16.542968 1.320312-32.875 8.011719-47.808593 4.011718 3.527343 8.28125 5.875 12.777343 7 .613281.15625 1.226563.226562 1.828125.226562 3.359375 0 6.417969-2.273437 7.269532-5.679687 1.003906-4.019532-1.4375-8.089844-5.457032-9.097656-4.007812-1.003907-8.0625-4.386719-12.050781-10.042969-.015625-.019531-.027344-.039063-.042969-.054688-.023437-.03125-.042968-.058593-.066406-.089843-12.363281-17.660157-15.722656-43.492188-8.765625-48.363282 3.203125-2.242187 10.449219-.871094 18.46875 3.496094 9.050781 4.933594 18.238281 13.085938 23.976563 21.285156 3.40625 4.867188 5.242187 9.21875 5.457031 12.941406.238281 4.136719 3.8125 7.300782 7.917969 7.058594 4.132812-.234375 7.292968-3.78125 7.058593-7.914062-.375-6.527344-2.960937-13.183594-7.898437-20.328125 9.292968-3.949219 19.125-6.402344 29.335937-7.292969 3.273438-.285156 6.617188-.542969 10.007813-.765625-.761719 6.828125 1.304687 13.796875 6.003906 19.179687 11.605469 13.300782 28.039062 20.527344 44.988281 20.527344 6.496094 0 13.074219-1.0625 19.476563-3.253906 9.550781-3.269531 16.160156-11.886719 16.839844-21.960938l.796874-11.847656c32.765626 4.5625 61.546876 13.25 83.613282 25.296875 1.140625.621094 2.375.917969 3.585937.917969 2.65625 0 5.230469-1.414062 6.589844-3.90625 1.984375-3.636719.648437-8.191406-2.988281-10.179688-15.078125-8.230468-32.984375-14.972656-52.929688-20.035156.3125-17.078125-5.054687-29.65625-14.871094-34.234375-5.855468-2.730469-12.777343-2.484375-20.199218.574219l3.199218-47.492188c.796876-11.820312-6.933593-22.628906-18.375-25.695312-11.449218-3.0625-23.542968 2.429688-28.765624 13.0625l-24.910157 50.75c-18.527343-12.464844-42.789062-17.730469-70.824219-15.277344-28.707031 2.511719-53.773437 14.535156-70.578124 33.855469-16.367188 18.808594-24.140626 43.335937-21.886719 69.058594.3125 3.585937.855469 7.203125 1.613281 10.746093.773438 3.601563-.371094 7.503907-3.054688 10.433594-14.347656 15.667969-21.308593 35.019532-19.605468 54.496094 1.761718 20.109375-5.449219 37.222656-18.371094 43.589844-5.613281 2.765625-9.328125 8.164062-9.941406 14.4375-.613282 6.355468 2.035156 12.453125 7.089844 16.308594 13.007812 9.917968 34.527343 18.066406 58.902343 22.480468-2.070312 3.9375-4.089843 7.898438-6.097656 11.839844-12.332031 24.214844-23.980469 47.085938-44.707031 58.902344-4.90625 2.796875-7.917969 7.839844-8.066406 13.492187-.152344 5.722657 2.640624 10.980469 7.460937 14.074219 11.8125 7.578125 29.21875 14.511719 49.15625 19.617188.585937.453124 1.203125.871093 1.859375 1.246093.648438.371094 1.296875.734375 1.945312 1.085938 1.140626.621093 2.367188.914062 3.578126.914062 2.65625 0 5.234374-1.417969 6.59375-3.917969 1.980468-3.636718.632812-8.191406-3.003907-10.171874-.558593-.300782-1.109375-.609376-1.660156-.925782-.058594-.035156-.15625-.09375-.257813-.179687-.042968-.046875-.089843-.089844-.132812-.132813-.171875-.199218-.3125-.5-.257812-.957031.085937-.710937.550781-.84375.777343-.90625 13.433594-3.863281 21.136719-12.625 21.136719-24.039063 0-3.117187.394531-6.203124 1.125-9.203124 6.945312 7.050781 15.804688 12.371093 26.214844 15.554687.109375.035156.222656.054687.332031.089844 7.96875 8.660156 17.777344 15.609375 29.210937 20.769531-.925781 3.0625-1.878906 5.957031-2.863281 8.691406-4.765625 2.011719-9.820312 3.039063-15.078125 3.039063-8.722656 0-18.125-.207031-27.820312-1.714844-4.097656-.632813-7.925782 2.167969-8.5625 6.261719-.632813 4.09375 2.167968 7.925781 6.261718 8.5625 10.703126 1.660156 20.800782 1.890625 30.121094 1.890625 2.382813 0 4.734375-.167969 7.058594-.46875-1.859375 3.121093-3.792969 5.796875-5.796875 7.988281-4.929687 5.390625-7.46875 12.378906-7.144531 19.679688.328125 7.296874 3.476562 14.035156 8.863281 18.964843 5.054687 4.621094 11.609375 7.167969 18.457031 7.167969 7.660156 0 15.019532-3.242188 20.1875-8.890625 12.71875-13.902344 22.589844-33.671875 30.105469-60.292969.960937.011719 1.921875.027344 2.890625.027344 9.269531 0 18.082031-.695312 26.394531-2.050781-1.144531 2.441406-2.796875 4.855469-4.871093 7.046875-5.023438 5.304687-7.683594 12.25-7.480469 19.554687.199219 7.300781 3.226562 14.089844 8.535156 19.113281 5.101563 4.832032 11.777344 7.492188 18.800781 7.492188 7.484375 0 14.722656-3.117188 19.867188-8.546875 4.363281-4.609375 8.117187-9.644531 11.230468-14.953125.035157-.054688.0625-.109375.097657-.160156 7.085937-12.160156 10.757812-25.777344 10.324219-39.164063-.167969-5.109375-.914063-10.074219-2.214844-14.820312.570312-.519531 1.128906-1.042969 1.683594-1.574219 15.777343-15.195312 24.847656-35.757812 26.527343-59.820312 21-12.1875 48.980469-30.808594 68.496094-48.929688 7.859375-7.292969 10.5625-18.371094 7.46875-28.238281 4.042969-3.429688 7.792969-7.160157 11.210937-11.230469 14.078126-16.773438 21.292969-38.050781 20.316407-59.914062zm-143.960938-114.832032c6.203125-4.363281 11.933594-6.222656 15.054688-4.765625 3.132812 1.460938 5.835937 7.628907 6.175781 17.21875-7.070312-1.425781-14.347656-2.664062-21.824219-3.683593zm-72.292969 16.328125c.003907-.011719.007813-.023437.011719-.03125l43-87.597656c1.6875-3.433594 5.179688-5.519531 8.871094-5.519531.84375 0 1.699219.109375 2.542969.335937 4.542968 1.21875 7.609375 5.507813 7.296875 10.199219l-6.800781 100.90625c-.269532 4.023438-2.910157 7.46875-6.726563 8.773438-17.3125 5.925781-36.277344.847656-48.308594-12.941407-2.652343-3.039062-3.21875-7.34375-1.441406-10.964843zm-191.820312 182.234375c-1.296875-.988281-1.3125-2.378906-1.257812-2.929687.0625-.640625.359374-1.804688 1.640624-2.4375 18.515626-9.125 28.988282-32.027344 26.6875-58.351563-1.335937-15.238281 4.25-30.527344 15.71875-43.054687 5.957032-6.507813 8.449219-15.371094 6.664063-23.707031-.632813-2.941407-1.082031-5.9375-1.339844-8.910157-1.894531-21.632812 4.589844-42.199219 18.257813-57.910156 14.449218-16.609375 35.394531-26.554687 60.570312-28.757813 25.828125-2.261718 46.910156 2.457032 62.820313 13.96875l-9.464844 19.289063c-5.867187.308594-11.636719.707031-17.207031 1.195313-13.375 1.171874-26.191406 4.648437-38.175782 10.351562-5.777343-5.636719-12.4375-10.648438-19.191406-14.328125-13.777344-7.503906-25.9375-8.433594-34.25-2.613281-16.738281 11.71875-9.816406 45.082031 2.6875 65.574218-10.089844 19.007813-14.421875 40.316407-12.53125 61.929688 1.933594 22.097656 10.21875 42.136719 22.890625 58.488281-11.089843 8.816407-19.59375 20.289063-26.976562 32.699219-23.921875-3.734375-45.65625-11.433594-57.542969-20.496094zm65.925781 83.507813c.808594 2.371093 1.765625 4.652343 2.839844 6.847656-3.695313 7.433594-5.640625 15.640625-5.640625 23.992187 0 1.648438 0 6.660157-10.28125 9.617188-5.550781 1.597656-9.628906 5.789062-11.074219 11.203125-14.351562-4.304687-26.632812-9.53125-35.28125-15.078125-.480469-.308594-.570312-.746094-.5625-1.058594.015625-.574218.367188-.773437.5-.851562 24.625-14.039063 37.851563-40.011719 50.644531-65.125 3.628907-7.121094 7.195313-14.121094 10.949219-20.761719.019531-.03125.039063-.066406.058594-.101563 7.421875-13.113281 15.585937-24.792968 26.417969-33.167968 1.84375 1.816406 3.75 3.566406 5.714844 5.25-8.234376.320312-16.234376 4.324218-21.335938 11.5625-15.453125 21.921875-20.171875 46.585937-12.949219 67.671875zm14.191407-4.863281c-5.644532-16.480469-1.632813-36.222657 11.015624-54.167969 2.402344-3.410157 6.230469-5.230469 10.113282-5.230469 2.460937 0 4.941406.726562 7.101562 2.25 5.566406 3.925781 6.902344 11.644531 2.980469 17.210938-7.914063 11.226562-10.84375 23.164062-7.839844 31.929687.359375 1.058594.808594 2.054687 1.332031 2.992187l-14.191406 21.621094c-4.730468-4.585937-8.3125-10.179687-10.511718-16.605468zm45.160156 19.511718c-1.597656 5.226563-6.34375 8.742188-11.804688 8.742188-.75 0-1.5-.078125-2.242187-.214844-.074219-.015625-.148438-.03125-.222657-.042969-.386718-.078125-.773437-.171875-1.15625-.285156-2.394531-.734375-4.667968-1.625-6.839843-2.640625l13.828125-21.0625c.082031.023438.15625.054688.238281.078125 3.15625.964844 5.746094 3.101563 7.292969 6.015625 1.550781 2.910156 1.871094 6.253906.90625 9.410156zm22.347656 104.449219c-2.367188 2.589844-5.605469 4.015625-9.117188 4.015625-3.09375 0-6.050781-1.148438-8.332031-3.238281-2.4375-2.226563-3.855469-5.265625-4.003906-8.5625-.144531-3.296875.996094-6.453125 3.226563-8.886719.121093-.136719.242187-.285156.367187-.421875l22.195313 11.914063c-1.402344 1.828124-2.847657 3.554687-4.335938 5.179687zm12.5-17.824219-21.769531-11.683594c2.308593-4.183593 4.488281-8.914062 6.53125-14.164062.140625-.304688.265625-.613281.367187-.933594 1.339844-3.515625 2.625-7.257812 3.847656-11.230468 7.578126 2.246093 15.710938 3.828124 24.34375 4.75-3.839843 12.972656-8.253906 24.019531-13.320312 33.261718zm81.917969-.019531c-2.359375 2.488281-5.542969 3.859375-8.972657 3.859375-3.171874 0-6.1875-1.203125-8.492187-3.382812-2.394531-2.269532-3.765625-5.335938-3.855469-8.632813-.074218-2.808594.792969-5.5 2.453125-7.714844l23.511719 10.394531c-1.441406 1.886719-2.984375 3.722657-4.644531 5.476563zm12.398437-18.449219-22.570312-9.984375c1.441406-3.179687 2.394531-6.453125 2.804687-9.707031 8.945313-2.683594 17.125-6.277344 24.449219-10.75.25 1.773438.410156 3.578125.46875 5.410156.273438 8.414063-1.542969 16.976563-5.152344 25.03125zm9.210938-52.714844c-9.839844 9.476563-22.484375 16.136719-37.746094 19.972657-.332031.0625-.65625.144531-.96875.246093-9.988281 2.417969-21.074219 3.644532-33.246094 3.644532-27.242187 0-49.644531-6.371094-65.722656-18.558594 6.421875-3.28125 11.425781-9.0625 13.65625-16.363281 2.136719-6.984375 1.425781-14.386719-2.003906-20.835938-3.429688-6.453125-9.167969-11.183593-16.152344-13.320312-3.234375-.988281-3.597656-2.039063-3.789062-2.601563-.753907-2.199218-.613282-8.402344 4.816406-16.8125 14.140625 4.910156 28.78125 7.382813 43.722656 7.382813 3.875 0 7.777344-.171875 11.6875-.503907l-1.101562 1.832032c-4.96875 8.253906-3.476563 19.027344 3.554687 25.617187l30.375 28.480469c3.945313 3.695312 9.007813 5.546875 14.070313 5.546875s10.125-1.851563 14.070312-5.546875l30.378906-28.480469c7.027344-6.59375 8.519532-17.363281 3.550782-25.617187l-5.257813-8.734375c6.226563-.730469 12.066406-1.523438 17.660156-2.394531.453125 3.238281.691407 6.503906.691407 9.769531-.003907 23.457031-7.695313 43.261719-22.246094 57.277343zm-74-48.183593 6.585937-10.933594c4.277344-.28125 8.671875-.550781 13.183594-.832031 12.464844-.769532 25.355469-1.566406 38.574219-2.726563.019531 0 .039062 0 .058594-.003906 1.015624-.089844 2.015624-.179687 3.007812-.269531l8.894531 14.765625c1.34375 2.234375.9375 5.152343-.964843 6.9375l-30.378907 28.480469c-2.136719 2.003906-5.480469 2.003906-7.617187 0l-30.378906-28.480469c-1.90625-1.785157-2.308594-4.699219-.964844-6.9375zm105.292968-37.546875c-.414062.75-1.394531 2.054687-3.335937 2.40625-.460937.082031-.921875.160156-1.386719.242187-.074218.011719-.148437.027344-.222656.039063-10.976562 1.925781-22.800781 3.480468-36.6875 4.816406-.011719.003906-.023438.003906-.039062.003906-2.128907.207032-4.308594.40625-6.539063.601563-.011719 0-.019531.003906-.03125.003906-13.058594 1.140625-25.84375 1.933594-38.253906 2.699219-11.183594.691406-21.746094 1.34375-31.527344 2.199218-16.648437 1.457032-32.953125-.488281-48.574219-5.765624.609375-4.761719-.046875-9.605469-1.878906-14.023438 14.183594 6.503906 29.878906 10.109375 46.265625 10.109375 3.242187-.003906 6.519531-.144531 9.8125-.429687 9.859375-.863282 20.484375-1.519532 31.734375-2.214844 25.257812-1.5625 53.078125-3.285156 79.621094-7.902344.457031 1.011719.894531 2.015625 1.296875 3.007812.757812 1.882813.167969 3.445313-.253907 4.207032zm5.457032 19.375c-.148438-1.375-.324219-2.75-.539063-4.117188 3.429688-1.773437 6.292969-4.53125 8.214844-8.011718 2.910156-5.269532 3.285156-11.496094 1.027344-17.074219-.046875-.121094-.105469-.246094-.15625-.367188 8.160156-1.835937 16.125-4.003906 23.765625-6.605469l7.9375 8.820313c-13.1875 10.105469-27.761719 19.765625-40.25 27.355469zm58.472656-42.582032c-2.070312 1.921876-4.257812 3.859376-6.53125 5.796876l-4.707031-5.230469c5.25-2.351563 10.28125-4.964844 15.054687-7.867188-.394531 2.722657-1.683594 5.320313-3.816406 7.300781zm-29.679688-31.492187c.863282 0 1.730469-.039063 2.597657-.113281 8.585937-.75 16.421875-5.183594 21.503906-12.15625 2.4375-3.351563 1.703125-8.039063-1.644531-10.480469-3.347656-2.4375-8.039063-1.703125-10.480469 1.644531-2.527344 3.472656-6.421875 5.675782-10.6875 6.046875-4.273437.375-8.480469-1.121093-11.574219-4.097656-2.980468-2.875-7.730468-2.785156-10.601562.195313-2.875 2.984374-2.785156 7.734374.199218 10.605468 5.585938 5.386719 13.007813 8.355469 20.6875 8.355469zm-156.453124-118.3125c-4.125.363281-7.179688 4-6.816407 8.125l.921875 10.554687c.339844 3.90625 3.617188 6.847657 7.460938 6.847657.222656 0 .441406-.011719.664062-.027344 4.125-.363281 7.179688-4 6.816406-8.125l-.921874-10.554687c-.359376-4.128907-3.996094-7.167969-8.125-6.820313zm0 0"/></svg>